<?xml version="1.0" encoding="UTF-8"?> <svg xmlns="http://www.w3.org/2000/svg" viewBox="0 0 228 53" fill="none"><g clip-path="url(#clip0_1_4)"><path d="M173.943 1.53647V2.66555H164.75V1.53647H173.943ZM168.737 1.53647H169.94V14.0943H168.737V1.53647Z" fill="#FF0066"></path><path d="M179.018 14.2804C178.129 14.2804 177.327 14.0719 176.612 13.6517C175.897 13.2315 175.335 12.6605 174.928 11.942C174.521 11.2203 174.319 10.4087 174.319 9.5074C174.319 8.60606 174.508 7.82981 174.883 7.1113C175.258 6.38958 175.784 5.81863 176.461 5.39201C177.138 4.9654 177.921 4.75369 178.812 4.75369C179.704 4.75369 180.474 4.94936 181.125 5.33748C181.776 5.7256 182.283 6.25807 182.649 6.93488C183.011 7.61169 183.194 8.38152 183.194 9.24758V9.94364H175.165L175.467 9.13531C175.403 9.8859 175.518 10.5659 175.807 11.1754C176.096 11.7848 176.519 12.2692 177.077 12.6316C177.635 12.9941 178.283 13.1769 179.024 13.1769C179.65 13.1769 180.23 13.0486 180.763 12.792C181.295 12.5354 181.725 12.1184 182.049 11.541L182.95 12.0286C182.537 12.7792 181.988 13.3437 181.305 13.719C180.622 14.0943 179.861 14.2836 179.021 14.2836L179.018 14.2804ZM175.502 8.99739H182.027C182.014 8.35907 181.866 7.80415 181.584 7.33263C181.302 6.86111 180.923 6.49864 180.445 6.24203C179.967 5.98542 179.425 5.85712 178.809 5.85712C178.193 5.85712 177.632 5.99504 177.154 6.2709C176.676 6.54676 176.298 6.92205 176.015 7.39999C175.733 7.87792 175.56 8.41039 175.499 8.99739H175.502Z" fill="#FF0066"></path><path d="M189.638 14.2804C189.013 14.2804 188.416 14.1585 187.852 13.9147C187.287 13.6709 186.793 13.3309 186.367 12.8979C185.94 12.4648 185.606 11.958 185.359 11.3743C185.112 10.7905 184.994 10.1746 184.994 9.52345C184.994 8.8723 185.116 8.24361 185.359 7.67265C185.603 7.10169 185.94 6.59809 186.367 6.15865C186.793 5.7192 187.287 5.37919 187.852 5.13541C188.416 4.89163 189.01 4.76974 189.638 4.76974C190.453 4.76974 191.204 4.95258 191.893 5.31504C192.583 5.6775 193.141 6.24846 193.568 7.02471L192.589 7.58925C192.262 6.99905 191.842 6.56923 191.329 6.29337C190.815 6.01751 190.251 5.87958 189.638 5.87958C189.026 5.87958 188.435 6.04638 187.909 6.37677C187.383 6.71036 186.96 7.14981 186.639 7.70152C186.318 8.25323 186.161 8.85947 186.161 9.52666C186.161 10.1938 186.322 10.8001 186.639 11.3518C186.96 11.9035 187.38 12.3462 187.909 12.6766C188.435 13.0101 189.013 13.1737 189.638 13.1737C190.264 13.1737 190.815 13.0358 191.329 12.7599C191.842 12.4841 192.262 12.0575 192.589 11.4801L193.568 12.0254C193.141 12.7888 192.583 13.3566 191.893 13.7254C191.204 14.0943 190.453 14.2804 189.638 14.2804Z" fill="#FF0066"></path><path d="M197.272 14.0943H196.108V0.782654H197.272V7.88755H196.785C196.871 7.29735 197.099 6.76809 197.462 6.29977C197.824 5.83146 198.289 5.45617 198.854 5.18031C199.418 4.90446 200.037 4.76653 200.714 4.76653C201.58 4.76653 202.321 4.95899 202.943 5.34069C203.562 5.7224 204.037 6.25166 204.361 6.92847C204.688 7.60528 204.849 8.40077 204.849 9.31495V14.0911H203.684V9.41117C203.684 8.77286 203.569 8.18586 203.338 7.65339C203.107 7.12093 202.757 6.69111 202.295 6.36714C201.83 6.03996 201.256 5.87958 200.567 5.87958C199.941 5.87958 199.376 6.03675 198.873 6.34789C198.372 6.66224 197.981 7.09206 197.699 7.63415C197.417 8.17945 197.275 8.80173 197.275 9.5042V14.0911L197.272 14.0943Z" fill="#FF0066"></path><path d="M171.631 30.5655C170.752 30.5655 169.937 30.3955 169.177 30.0587C168.417 29.7219 167.753 29.2536 167.175 28.657C166.598 28.0603 166.152 27.3707 165.831 26.5784C165.51 25.7893 165.353 24.9489 165.353 24.0604C165.353 23.1719 165.514 22.3572 165.831 21.5777C166.152 20.8015 166.595 20.1151 167.166 19.5184C167.737 18.9218 168.404 18.4567 169.167 18.1167C169.931 17.7767 170.752 17.6099 171.631 17.6099C172.295 17.6099 172.943 17.7157 173.578 17.9307C174.21 18.1456 174.787 18.4535 175.307 18.8609C175.826 19.2682 176.256 19.7783 176.593 20.3941L175.595 20.9779C175.319 20.4903 174.97 20.083 174.543 19.7558C174.117 19.4286 173.651 19.1816 173.141 19.0148C172.635 18.8448 172.118 18.7614 171.592 18.7614C170.89 18.7614 170.235 18.8994 169.629 19.1752C169.02 19.4511 168.49 19.8328 168.041 20.3203C167.589 20.8079 167.236 21.3757 166.98 22.0204C166.723 22.6651 166.595 23.3515 166.595 24.0797C166.595 24.8078 166.723 25.5103 166.98 26.1582C167.236 26.803 167.589 27.3707 168.041 27.8583C168.494 28.3458 169.026 28.7307 169.639 29.0066C170.251 29.2825 170.919 29.4204 171.631 29.4204C172.208 29.4204 172.75 29.3434 173.257 29.1862C173.764 29.0291 174.21 28.827 174.591 28.5768C174.973 28.3266 175.265 28.07 175.464 27.8069V24.5737H176.647V28.24C176.371 28.6153 175.996 28.9841 175.518 29.3402C175.04 29.6962 174.476 29.9913 173.818 30.2223C173.161 30.4532 172.429 30.5687 171.627 30.5687L171.631 30.5655Z" fill="#FF0066"></path><path d="M180.41 30.357H179.246V24.7372C179.246 24.0219 179.377 23.3932 179.64 22.8479C179.903 22.3026 180.282 21.876 180.779 21.5681C181.273 21.2602 181.873 21.1062 182.575 21.1062C182.864 21.1062 183.14 21.1351 183.403 21.1896C183.666 21.2441 183.916 21.3307 184.153 21.443V22.6266C183.929 22.4887 183.688 22.3893 183.438 22.3251C183.188 22.2609 182.931 22.2321 182.668 22.2321C181.978 22.2321 181.43 22.463 181.023 22.9281C180.615 23.3932 180.413 24.0123 180.413 24.7886V30.3538L180.41 30.357Z" fill="#FF0066"></path><path d="M189.715 30.5463C188.814 30.5463 188.002 30.3314 187.281 29.8983C186.559 29.4653 185.988 28.8911 185.561 28.1694C185.135 27.4477 184.923 26.649 184.923 25.7733C184.923 24.8976 185.135 24.0989 185.561 23.3868C185.988 22.6715 186.565 22.1038 187.29 21.6772C188.015 21.2506 188.827 21.0388 189.715 21.0388C190.604 21.0388 191.444 21.2538 192.16 21.6772C192.875 22.1038 193.439 22.6779 193.86 23.3965C194.28 24.1182 194.488 24.9105 194.488 25.7733C194.488 26.6362 194.277 27.4509 193.86 28.1694C193.439 28.8911 192.868 29.4653 192.15 29.8983C191.428 30.3314 190.617 30.5463 189.715 30.5463ZM189.715 29.4364C190.392 29.4364 191.002 29.2696 191.547 28.9392C192.092 28.6056 192.525 28.1662 192.843 27.6145C193.163 27.0628 193.321 26.4565 193.321 25.7926C193.321 25.1286 193.16 24.5191 192.843 23.9674C192.522 23.4157 192.092 22.973 191.547 22.6427C191.002 22.3123 190.392 22.1455 189.715 22.1455C189.038 22.1455 188.429 22.3123 187.884 22.6427C187.338 22.9763 186.902 23.4157 186.578 23.9674C186.251 24.5191 186.091 25.1254 186.091 25.7926C186.091 26.4597 186.254 27.066 186.578 27.6145C186.905 28.1662 187.338 28.6089 187.884 28.9392C188.429 29.2728 189.038 29.4364 189.715 29.4364Z" fill="#FF0066"></path><path d="M199.245 30.5655C198.969 30.5655 198.725 30.511 198.511 30.4051C198.296 30.2993 198.119 30.1389 197.975 29.9272C197.831 29.7155 197.721 29.4525 197.644 29.1381L195.819 21.2409H196.929L198.677 28.9104C198.729 29.1092 198.796 29.2568 198.883 29.353C198.969 29.446 199.088 29.4942 199.239 29.4942C199.377 29.4942 199.489 29.446 199.575 29.353C199.662 29.26 199.726 29.1317 199.765 28.9681L201.381 22.4438C201.506 21.9691 201.702 21.613 201.965 21.3821C202.228 21.1511 202.568 21.0356 202.982 21.0356C203.396 21.0356 203.717 21.1479 203.98 21.3724C204.243 21.597 204.432 21.9498 204.544 22.4245L206.141 28.9681C206.193 29.1317 206.263 29.26 206.356 29.353C206.449 29.446 206.565 29.4942 206.703 29.4942C206.841 29.4942 206.953 29.446 207.04 29.353C207.126 29.26 207.197 29.1125 207.245 28.9104L208.974 21.2409H210.064L208.259 29.1381C208.185 29.4525 208.076 29.7155 207.938 29.9272C207.8 30.1389 207.627 30.2993 207.421 30.4051C207.216 30.511 206.972 30.5655 206.696 30.5655C206.27 30.5655 205.933 30.45 205.68 30.2191C205.429 29.9881 205.247 29.6385 205.134 29.1766L203.537 22.617C203.486 22.4406 203.412 22.3059 203.312 22.2128C203.213 22.1198 203.094 22.0717 202.956 22.0717C202.818 22.0717 202.7 22.1198 202.6 22.2128C202.501 22.3059 202.43 22.4406 202.392 22.617L200.775 29.1766C200.663 29.6417 200.483 29.9881 200.239 30.2191C199.996 30.45 199.659 30.5655 199.232 30.5655H199.245Z" fill="#FF0066"></path><path d="M217.686 22.293H210.863V21.2409H217.686V22.293ZM215.864 30.5655C215.225 30.5655 214.677 30.434 214.218 30.171C213.76 29.9079 213.41 29.5358 213.166 29.0515C212.922 28.5704 212.8 28.009 212.8 27.3675V18.8127H213.965V27.329C213.965 28.0058 214.148 28.5319 214.51 28.9072C214.873 29.2824 215.357 29.4717 215.957 29.4717C216.284 29.4717 216.595 29.414 216.897 29.3017C217.198 29.1894 217.461 29.0387 217.686 28.8494V29.9785C217.448 30.1549 217.169 30.2961 216.848 30.4019C216.528 30.5078 216.201 30.5623 215.861 30.5623L215.864 30.5655Z" fill="#FF0066"></path><path d="M220.149 30.357H218.985V17.0486H220.149V24.1535H219.662C219.748 23.5632 219.976 23.034 220.338 22.5657C220.701 22.0974 221.166 21.7221 221.731 21.4462C222.295 21.1704 222.914 21.0324 223.591 21.0324C224.457 21.0324 225.198 21.2249 225.82 21.6066C226.439 21.9883 226.914 22.5176 227.238 23.1944C227.565 23.8712 227.726 24.6667 227.726 25.5808V30.357H226.561V25.6771C226.561 25.0388 226.446 24.4518 226.215 23.9193C225.984 23.3868 225.634 22.957 225.172 22.633C224.707 22.3059 224.133 22.1455 223.443 22.1455C222.818 22.1455 222.253 22.3026 221.75 22.6138C221.249 22.9281 220.858 23.358 220.576 23.9C220.294 24.4453 220.152 25.0676 220.152 25.7701V30.357H220.149Z" fill="#FF0066"></path><path d="M153.312 30.9536C152.953 30.9536 152.629 30.867 152.34 30.6938C152.051 30.5206 151.82 30.2864 151.644 29.9913C151.471 29.6962 151.384 29.3691 151.384 29.0098C151.384 28.6505 151.471 28.3266 151.644 28.0315C151.817 27.7396 152.051 27.5054 152.34 27.3322C152.629 27.159 152.953 27.0724 153.312 27.0724C153.671 27.0724 153.989 27.159 154.281 27.3322C154.572 27.5054 154.803 27.7396 154.977 28.0315C155.147 28.3234 155.233 28.6505 155.233 29.0098C155.233 29.3691 155.147 29.6962 154.977 29.9913C154.807 30.2864 154.572 30.5206 154.281 30.6938C153.989 30.867 153.665 30.9536 153.312 30.9536ZM153.312 30.5591C153.591 30.5591 153.844 30.4885 154.075 30.3506C154.306 30.2127 154.489 30.0234 154.624 29.7925C154.758 29.5583 154.826 29.2985 154.826 29.0098C154.826 28.7211 154.758 28.4677 154.624 28.2335C154.489 27.9994 154.306 27.8133 154.075 27.6754C153.844 27.5375 153.591 27.4669 153.312 27.4669C153.033 27.4669 152.779 27.5375 152.548 27.6754C152.317 27.8133 152.135 28.0026 151.997 28.2335C151.859 28.4677 151.791 28.7243 151.791 29.0098C151.791 29.2953 151.859 29.5615 151.993 29.7925C152.128 30.0234 152.311 30.2127 152.542 30.3506C152.773 30.4885 153.03 30.5591 153.315 30.5591H153.312ZM153.014 29.9496H152.661V28.0283H153.337C153.552 28.0283 153.726 28.0796 153.86 28.1854C153.995 28.2913 154.062 28.4356 154.062 28.6249C154.062 28.8013 153.998 28.9392 153.873 29.0355C153.748 29.1317 153.575 29.1798 153.354 29.1798L153.37 29.0739C153.546 29.0739 153.671 29.106 153.748 29.1734C153.825 29.2407 153.899 29.353 153.973 29.507L154.175 29.9496H153.758L153.613 29.6032C153.556 29.4813 153.495 29.3947 153.437 29.3498C153.379 29.3049 153.289 29.2824 153.171 29.2824H152.904V28.9617H153.289C153.411 28.9617 153.511 28.936 153.584 28.8879C153.658 28.8398 153.694 28.766 153.694 28.6698C153.694 28.4773 153.575 28.3811 153.341 28.3811H153.02V29.9496H153.014Z" fill="#FF0066"></path><path d="M91.9885 30.9536L88.6333 52.1592H90.2435L93.6179 30.9536H91.9885Z" fill="#87FBC6"></path><path d="M34.3986 30.9536L35.5341 34.5301H7.28453L8.41682 30.9536H6.8098L0 52.4094H1.61023L6.77451 36.1403L36.0217 36.0666L41.2052 52.4094H42.8154L36.0056 30.9536H34.3986Z" fill="#87FBC6"></path><path d="M76.085 30.9536H73.4643C74.0161 31.3546 74.5293 31.7908 74.9976 32.2655C76.4282 33.7218 77.1467 35.8324 77.1467 38.5942C77.1467 41.1026 76.5052 43.2741 75.2285 45.1153C73.9487 46.9565 72.2102 48.3646 70.0097 49.3365C67.8093 50.3085 65.3298 50.796 62.568 50.796C58.9851 50.796 55.8288 49.9909 53.0927 48.3775C50.3566 46.7672 48.3486 44.5026 47.0688 41.5869L45.6863 42.3535C47.0174 45.5772 49.2275 48.0599 52.3229 49.7952C55.4182 51.5338 58.8311 52.403 62.568 52.403C65.6891 52.403 68.4637 51.8417 70.895 50.7158C73.3232 49.5899 75.2414 47.9925 76.6495 45.9204C78.0545 43.8483 78.7601 41.4073 78.7601 38.591C78.7601 36.1885 78.3111 34.2318 77.4161 32.721C77.0312 32.0731 76.5854 31.4829 76.0882 30.9504L76.085 30.9536Z" fill="#87FBC6"></path><path d="M125.803 30.9536L121.473 45.7119C121.37 46.1738 121.139 46.517 120.78 46.748C120.421 46.9789 120.039 47.0944 119.629 47.0944C118.708 47.0944 118.095 46.6357 117.787 45.7119L113.447 30.9536H111.828L116.331 46.1738C116.588 46.9918 117.034 47.6044 117.675 48.015C118.313 48.4256 118.968 48.6277 119.632 48.6277C120.347 48.6277 121.027 48.4224 121.665 48.015C122.304 47.6044 122.727 46.9918 122.932 46.1738L127.426 30.9536H125.806H125.803Z" fill="#87FBC6"></path><path d="M145.152 30.9536L148.253 52.0823H149.867L146.778 30.9536H145.152Z" fill="#87FBC6"></path><path d="M130.223 30.9536L136.437 9.3406C136.539 8.83059 136.719 8.44567 136.975 8.18906C137.232 7.93245 137.511 7.80415 137.819 7.80415C138.281 7.80415 138.599 7.95812 138.778 8.26605C138.958 8.57398 139.07 9.00701 139.125 9.57155L141.96 30.9536H149.617L146.181 7.11451C145.873 4.81143 144.991 3.0729 143.535 1.8957C142.076 0.718496 140.324 0.1315 138.278 0.1315C136.437 0.1315 134.772 0.61906 133.29 1.59097C131.808 2.56288 130.782 4.04802 130.22 6.04316L123.362 30.9568H130.22L130.223 30.9536Z" fill="#FF0066"></path><path d="M96.9635 30.9536L100.142 9.49458C100.245 8.88193 100.412 8.43286 100.639 8.15059C100.87 7.86832 101.165 7.72718 101.522 7.72718C101.878 7.72718 102.16 7.84265 102.365 8.0736C102.57 8.30455 102.747 8.69909 102.901 9.26363L109.053 30.9536H115.962L109.037 5.88921C108.472 3.84274 107.465 2.36082 106.006 1.44023C104.546 0.519638 102.898 0.0577393 101.056 0.0577393C99.01 0.0577393 97.2458 0.631905 95.7606 1.78344C94.2755 2.93498 93.3549 4.63503 92.9989 6.88678L89.1914 30.9536H96.9571H96.9635Z" fill="#FF0066"></path><path d="M12.1793 30.9536L18.5304 9.82176C18.9923 8.23719 19.961 7.4417 21.4462 7.4417C22.9313 7.4417 23.8487 8.23719 24.3619 9.82176L30.636 30.9536H38.3183L31.037 7.51868C30.2704 5.11617 29.0162 3.32631 27.2777 2.14911C25.5391 0.971914 23.5696 0.384918 21.3692 0.384918C19.1688 0.384918 17.3404 0.975122 15.5762 2.14911C13.812 3.32631 12.545 5.11617 11.7784 7.51868L4.49707 30.9536H12.1793Z" fill="#FF0066"></path><path d="M50.2506 25.9369C51.9891 27.0114 53.8688 27.8422 55.8896 28.4292C57.9104 29.0194 59.8927 29.5166 61.8366 29.9272C63.5366 30.2255 65.118 30.5687 66.5903 30.9568H79.3663C78.3174 29.1958 76.9637 27.7781 75.3022 26.7067C73.6406 25.6322 71.8123 24.8014 69.8172 24.2112C67.822 23.6242 65.8525 23.1238 63.9087 22.7164C61.8109 22.3059 59.8799 21.8343 58.1157 21.2955C56.3515 20.7566 54.9305 19.9899 53.856 18.9924C52.7814 17.9948 52.2458 16.5738 52.2458 14.7326C52.2458 13.2507 52.6788 11.958 53.5513 10.8578C54.4205 9.75761 55.5592 8.88834 56.9674 8.24682C58.3755 7.6085 59.9473 7.28774 61.6858 7.28774C64.4989 7.28774 66.9046 7.89077 68.8998 9.09042C70.8949 10.2933 72.3768 11.9677 73.3487 14.1168L79.8699 10.7391C78.3366 7.21075 75.9566 4.53559 72.7329 2.72007C69.5092 0.904555 65.9295 -0.00320435 61.9905 -0.00320435C58.7155 -0.00320435 55.7613 0.647944 53.1279 1.95345C50.4912 3.25895 48.3966 5.03598 46.8345 7.28774C45.2724 9.53949 44.4929 12.096 44.4929 14.9604C44.4929 17.674 45.0158 19.9098 46.0647 21.674C47.1136 23.4381 48.5057 24.8591 50.2474 25.9337L50.2506 25.9369Z" fill="#FF0066"></path></g><defs><clipPath id="clip0_1_4"><rect width="227.726" height="52.4095" fill="white"></rect></clipPath></defs></svg> 