<?xml version="1.0" encoding="UTF-8" standalone="no"?>
<!-- Created with Inkscape (http://www.inkscape.org/) -->

<svg
   version="1.1"
   id="svg2"
   viewBox="0 0 298.45331 298.45334"
   color="#01f3ea"
   xmlns="http://www.w3.org/2000/svg"
   xmlns:svg="http://www.w3.org/2000/svg">
  <defs
     id="defs6">
    <clipPath
       clipPathUnits="userSpaceOnUse"
       id="clipPath18">
      <path
         d="M 0,434.665 H 414.219 V 0 H 0 Z"
         id="path16" />
    </clipPath>
  </defs>
  <g
     id="g10"
     transform="matrix(1.3333333,0,0,-1.3333333,-128.58054,476.76039)">
    <g
       id="g12">
      <g
         id="g14"
         clip-path="url(#clipPath18)">
        <g
           id="g20"
           transform="translate(320.2754,245.6503)">
        </g>
        <g
           id="g24"
           transform="translate(272.7328,300.574)">
          <path
             d="m 0,0 c -5.113,5.952 -18.943,17.405 -23.663,11.958 -4.417,-5.096 -1.143,-11.367 1.699,-13.59 25.108,-19.646 32.755,-52.333 20.11,-81.613 -10.303,-15.974 -6.256,-16.096 -3.141,-32.608 -23.071,5.352 -13.13,6.829 -36.675,-4.187 -97.893,-30.875 -132.453,118.096 -30.069,133.187 -0.139,-4.106 -1.154,-8.509 4.523,-7.582 1.408,0.23 23.706,13.214 24.688,14.304 1.663,1.844 1.945,2.88 0.49,5.067 -0.75,1.128 -20.838,12.914 -23.228,13.871 -9.8,3.921 -5.117,-6.926 -7.542,-8.562 -79.217,-7.376 -99.402,-102.409 -52.513,-147.471 21.134,-20.311 40.501,-25.747 72.948,-21.501 0.853,0.112 9.872,1.924 12.062,3.058 4.478,2.32 17.072,6.941 19.53,7.106 7.874,0.527 34.615,-15.279 35.665,0.6 0.477,7.208 -7.295,21.135 -7.093,27.977 C 25.321,-69.644 24.152,-27.146 0,0"
             style="fill-opacity:1;fill-rule:nonzero;stroke:none"
             fill="currentColor"
             id="path26" />
        </g>
        <g
           id="g28"
           transform="translate(191.1977,296.2236)">
          <path
             d="m 0,0 c 0.138,-0.13 0.216,-0.253 0.315,-0.347 0.065,-0.061 0.24,-0.059 0.351,-0.166 2.133,-2.069 4.302,-4.836 6.929,-6.214 5.903,-3.095 13.295,-2.314 18.312,2.096 l 0.095,-0.095 c -4.848,-5.743 -5.33,-14.02 -0.943,-20.177 5.24,-4.764 9.46,-10.969 16.169,-13.799 8.601,-3.628 17.445,-1.822 24.486,4.014 l 0.095,-0.095 c -5.806,-6.916 -7.581,-16.03 -4.016,-24.477 1.044,-2.472 2.532,-4.634 4.205,-6.714 h -0.095 c -7.844,6.521 -17.946,8.053 -27.044,2.98 -4.076,-2.273 -6.952,-6.369 -10.401,-9.452 -6.216,-8.042 -6.514,-18.799 -0.87,-27.245 0.595,-0.89 1.32,-1.687 1.912,-2.577 h -0.094 c -8.723,7.124 -19.77,8.05 -29.152,1.494 -0.492,-0.343 -1.008,-0.868 -1.481,-1.166 -0.985,-0.62 0.361,0.896 0.51,1.097 5.964,8.079 6.598,18.487 0.955,26.931 l -15.79,15.786 c -3.048,2.174 -7.117,2.362 -10.454,0.711 -0.21,-0.104 -1.813,-1.172 -1.887,-1.091 0.065,0.479 0.501,0.872 0.738,1.294 2.375,4.222 1.697,7.818 -0.738,11.749 l 0.094,0.094 c 3.935,-2.453 7.516,-3.12 11.754,-0.737 0.208,0.117 1.155,0.864 1.294,0.737 -0.221,-0.615 -0.69,-1.12 -0.994,-1.699 -1.636,-3.115 -1.631,-6.985 0.199,-10.013 l 14.272,-14.278 c 7.152,-5.988 17.032,-7.35 25.449,-3.138 4.756,2.38 8.106,7.423 12.087,10.885 5.477,7.686 5.733,18.344 0.332,26.138 l -12.481,12.477 c -5.201,3.463 -11.792,3.569 -17.18,0.439 -0.72,-0.419 -1.352,-1.004 -2.012,-1.391 -0.965,-0.566 0.335,0.935 0.507,1.194 3.223,4.839 3.876,10.642 1.461,15.999 -1.438,3.19 -4.191,5.611 -6.512,8.141 C 0.252,-0.479 0.175,-0.291 0,-0.095 Z"
             style="fill-opacity:1;fill-rule:nonzero;stroke:none"
             fill="currentColor"
             id="path30" />
        </g>
      </g>
    </g>
  </g>
</svg>
