<svg
  xmlns="http://www.w3.org/2000/svg"
  viewBox="0 0 298.45331 298.45334"
  preserveAspectRatio="xMidYMid meet"
>
  <g transform="matrix(90,0,0,90,-510,50)">
    <path d="M7.15732 0.256055H7.57301V2.74722H7.15732V0.256055Z" fill="#003C46"/>
    <path d="M8.06189 0.26632C8.05896 0.115562 8.14532 0.0365234 8.29754 0.0365234C8.44537 0.0365234 8.53026 0.117025 8.53319 0.26632C8.53612 0.420005 8.45269 0.507825 8.29754 0.507825C8.14971 0.506362 8.06628 0.420005 8.06189 0.26632Z" fill="#003C46"/>
    <path d="M8.50533 0.826953H8.08965V2.74729H8.50533V0.826953Z" fill="#003C46"/>
    <path d="M6.21179 0.826866C6.20886 0.676108 6.29522 0.59707 6.44744 0.59707C6.59527 0.59707 6.68017 0.677572 6.68309 0.826866C6.68602 0.980552 6.60259 1.06837 6.44744 1.06837C6.29961 1.06837 6.21618 0.980552 6.21179 0.826866Z" fill="#003C46"/>
    <path d="M6.65533 1.41387H6.23965V2.74727H6.65533V1.41387Z" fill="#003C46"/>
  </g>
</svg>