<?xml version="1.0" standalone="no"?>
<!DOCTYPE svg PUBLIC "-//W3C//DTD SVG 20010904//EN"
 "http://www.w3.org/TR/2001/REC-SVG-20010904/DTD/svg10.dtd">
<svg version="1.0" xmlns="http://www.w3.org/2000/svg"
 viewBox="0 0 440 235"
 preserveAspectRatio="xMidYMid meet">
<metadata>
Created by potrace 1.16, written by Peter Selinger 2001-2019
</metadata>
<g transform="translate(0.000000,240.000000) scale(0.100000,-0.100000)"
fill="#4ea346" stroke="none">
<path d="M1928 2310 c-155 -28 -336 -125 -442 -238 -22 -23 -54 -48 -72 -57
-30 -14 -39 -13 -116 5 -520 127 -1055 -178 -1200 -685 -19 -68 -23 -104 -23
-235 0 -141 3 -164 28 -250 99 -332 359 -580 704 -671 52 -14 123 -22 213 -26
157 -6 286 15 411 67 98 41 128 40 193 -3 75 -50 120 -71 216 -102 77 -26 99
-28 230 -28 132 -1 153 2 230 27 88 29 189 81 274 141 26 19 58 35 70 35 11 0
50 -14 86 -31 158 -76 252 -99 425 -106 116 -4 156 -2 235 15 319 66 571 261
704 543 50 105 69 172 87 305 11 79 10 105 -5 199 -37 226 -119 389 -271 540
-270 271 -661 361 -1040 241 -96 -31 -105 -28 -198 65 -111 110 -214 175 -364
225 -64 22 -100 27 -203 30 -69 2 -146 -1 -172 -6z m-818 -651 c93 -33 132
-93 133 -204 0 -97 -27 -155 -91 -193 -44 -25 -55 -27 -195 -31 -107 -2 -151
0 -162 9 -12 10 -15 48 -15 211 0 173 2 200 17 215 15 15 33 16 148 11 71 -3
146 -11 165 -18z m288 9 c7 -7 12 -21 12 -33 0 -31 -19 -45 -60 -45 -41 0 -60
14 -60 45 0 31 19 45 60 45 20 0 41 -5 48 -12z m716 -1 c12 -9 17 -23 14 -42
-3 -30 -3 -30 -72 -31 -73 -1 -96 -15 -96 -55 0 -15 11 -19 63 -21 l62 -3 0
-35 0 -35 -62 -3 -62 -3 -3 -102 -3 -102 -52 -3 c-49 -3 -53 -1 -59 22 -3 14
-5 95 -3 180 4 173 12 194 80 228 41 22 166 25 193 5z m860 -3 c10 -10 16 -33
16 -62 l0 -47 41 0 c48 0 65 -18 55 -58 -6 -24 -11 -27 -51 -27 l-45 0 0 -75
c0 -65 3 -76 20 -85 12 -6 30 -8 40 -5 35 11 60 -4 60 -36 0 -38 -34 -52 -108
-47 -57 5 -99 29 -119 69 -18 34 -18 375 0 382 26 11 76 6 91 -9z m-1260 -97
c47 -14 81 -55 71 -86 -9 -28 -67 -29 -102 -1 -27 21 -78 26 -103 10 -13 -9
-13 -12 4 -25 10 -7 41 -19 68 -25 96 -20 148 -61 148 -115 0 -31 -30 -72 -62
-86 -49 -21 -194 -18 -236 4 -38 21 -59 62 -41 83 17 21 77 17 106 -6 26 -21
51 -24 91 -14 36 10 26 32 -20 44 -24 6 -60 16 -80 21 -47 12 -94 51 -102 84
-4 16 0 40 10 60 9 19 17 35 18 35 0 0 19 7 41 15 48 17 135 18 189 2z m694
-34 c2 -24 0 -43 -5 -44 -4 0 -29 -2 -55 -3 -77 -3 -87 -19 -90 -145 l-3 -106
-55 0 -55 0 0 165 0 165 53 3 c38 2 54 -1 58 -11 4 -12 11 -11 42 5 21 11 52
17 72 16 34 -3 35 -5 38 -45z m999 28 c61 -28 75 -56 81 -165 2 -52 2 -110 -2
-130 -7 -35 -8 -36 -51 -36 -24 0 -46 4 -49 9 -3 5 -23 3 -43 -5 -81 -28 -178
-3 -207 55 -20 38 -20 54 -1 91 22 43 50 54 144 60 88 5 105 15 76 44 -23 22
-67 20 -99 -5 -37 -29 -100 -24 -104 9 -4 30 31 69 72 81 54 16 138 12 183 -8z
m-847 -111 c3 -63 9 -121 13 -127 11 -17 52 -16 87 2 l29 15 3 113 3 112 49 3
c32 2 52 -1 57 -10 10 -15 12 -288 3 -312 -8 -21 -102 -23 -110 -2 -4 11 -12
10 -42 -5 -45 -24 -87 -24 -131 -1 -62 31 -71 53 -74 187 -2 66 -1 126 1 133
3 9 20 12 56 10 l51 -3 5 -115z m-1155 -55 l0 -160 -55 0 -55 0 -3 150 c-1 82
0 155 3 163 3 9 20 12 57 10 l53 -3 0 -160z m-644 -285 c62 -17 104 -84 71
-116 -20 -20 -67 -12 -90 16 -22 26 -86 30 -109 7 -24 -24 -8 -53 71 -122 l67
-58 22 22 c29 26 38 26 65 0 l23 -20 -20 -33 -20 -32 39 -39 c22 -22 40 -45
40 -52 0 -18 -110 -17 -135 1 -17 12 -24 12 -50 -2 -45 -24 -160 -23 -204 3
-76 45 -92 147 -33 208 23 24 29 36 22 47 -16 25 -11 83 9 116 10 16 34 38 52
47 38 19 125 22 180 7z m490 1 c4 0 32 -58 64 -128 31 -71 60 -131 64 -136 4
-4 34 51 66 123 32 72 62 133 68 137 17 10 97 7 109 -5 8 -8 -14 -65 -81 -211
-51 -109 -98 -204 -104 -210 -13 -13 -86 -15 -104 -3 -15 10 -193 391 -193
414 0 9 5 18 12 20 10 4 82 3 99 -1z m1392 -4 c16 -11 17 -33 15 -222 l-3
-210 -44 -3 c-24 -2 -47 1 -50 7 -4 6 -23 4 -54 -6 -119 -39 -210 36 -211 174
0 50 5 69 27 101 34 52 96 77 167 69 l50 -6 0 42 c0 24 5 48 12 55 16 16 70
15 91 -1z m-791 -97 c53 -15 95 -63 108 -125 17 -84 16 -85 -121 -85 -65 0
-119 -4 -119 -8 0 -5 6 -17 14 -27 18 -25 87 -27 113 -2 24 21 86 22 102 3 18
-22 -11 -70 -51 -87 -52 -22 -176 -18 -218 6 -45 26 -80 94 -80 155 0 130 115
208 252 170z m426 -37 c2 -30 -1 -43 -10 -44 -7 -1 -32 -2 -55 -3 -71 -3 -82
-21 -85 -145 l-3 -106 -55 0 -55 0 0 165 0 165 53 3 c38 2 54 -1 58 -11 4 -12
11 -11 42 5 21 11 52 17 72 16 34 -3 35 -5 38 -45z m1140 4 c3 -32 0 -38 -21
-46 -14 -5 -34 -7 -45 -4 -23 6 -82 -22 -83 -40 0 -6 0 -52 1 -102 0 -49 -4
-96 -8 -103 -6 -9 -26 -12 -58 -10 l-49 3 0 165 0 165 49 3 c31 2 52 -1 57 -9
5 -9 16 -8 45 4 22 9 55 15 74 14 33 -2 35 -4 38 -40z m289 24 c64 -30 74 -58
71 -204 l-3 -122 -44 -3 c-24 -2 -47 1 -50 7 -4 6 -23 4 -54 -6 -138 -45 -263
68 -182 165 28 34 86 52 164 52 35 0 51 4 51 13 0 39 -57 49 -105 17 -60 -40
-125 -19 -106 33 24 61 169 88 258 48z m-867 -111 c3 -63 9 -121 13 -127 11
-17 52 -16 87 2 l29 15 3 113 3 112 49 3 c32 2 52 -1 57 -10 10 -15 12 -251 3
-297 -6 -30 -9 -31 -56 -31 -32 0 -50 5 -54 14 -4 11 -12 10 -42 -6 -67 -35
-155 -10 -188 54 -18 34 -31 207 -20 252 6 26 10 27 59 24 l52 -3 5 -115z"/>
<path d="M910 1454 l0 -130 48 3 c26 1 59 2 74 2 15 1 39 11 53 24 48 41 44
174 -6 205 -12 8 -55 16 -95 19 l-74 6 0 -129z"/>
<path d="M3262 1359 c-27 -10 -26 -36 0 -53 27 -17 102 12 106 42 3 20 -1 22
-40 21 -24 0 -53 -4 -66 -10z"/>
<path d="M586 834 c-12 -31 -6 -63 13 -74 22 -11 84 -14 94 -4 6 6 -81 93 -94
94 -4 0 -10 -7 -13 -16z"/>
<path d="M2430 915 c-19 -23 -23 -105 -8 -135 15 -28 64 -38 98 -20 18 9 20
20 20 90 l0 80 -49 0 c-31 0 -53 -5 -61 -15z"/>
<path d="M1742 924 c-42 -29 -28 -44 43 -44 69 0 78 7 45 40 -24 24 -57 26
-88 4z"/>
<path d="M3558 803 c-25 -6 -23 -50 2 -58 10 -3 37 -1 60 5 33 9 40 15 40 35
0 23 -4 25 -42 24 -24 -1 -51 -3 -60 -6z"/>
</g>
</svg>
