<svg id="Capa_1" data-name="Capa 1" xmlns="http://www.w3.org/2000/svg" viewBox="0 0 270 200"><defs><style>.cls-2{fill:#00ae42}.cls-2,.cls-5{fill-rule:evenodd}.cls-4,.cls-5{fill:#fff}</style></defs><path d="M254.1 160.7a19.23 19.23 0 01-5.62-.78 11.15 11.15 0 01-6.89-5.33c-.9-1.67-1.43-2.87-2.06-4.26l-.6-1.33 7.12-3.25.62 1.38c.61 1.36 1.05 2.34 1.83 3.79a3.77 3.77 0 002.27 1.51 14.49 14.49 0 007.79-.19 16.67 16.67 0 01-1-1.61c-.48-.91-1.25-1.27-4.59-1.5l.54-7.81c3.09.21 8.26.57 11 5.63a12 12 0 001.29 1.85c1 1.2 2.42 3 1.91 5.48a6.28 6.28 0 01-3.47 4.08 22.29 22.29 0 01-10.14 2.34z" transform="translate(.34 -.13)" fill="#ea0029"/><path class="cls-2" d="M100.38.13c3.89 2.79 9.27 3.69 9.27 10 0 36.67-50.83 96.59-90 115.87C45.34 90.61 100.87 42.42 100.38.13z" transform="translate(.34 -.13)"/><path d="M188.64 12.67c2.82 0 14.89-.92 21.13 12-9.23.61-80.06.3-80.06 22.11 0 6.32 5.33 8.85 11.6 9l58.9 12.33-.62 9.8c-22 4.53-97.46 1.7-97.46 30.79 0 6.32 3.61 7.7 6.75 7.68h90.27c2.91 2.8 5.78 6.22 5.41 12.36l-100.08-.07c-12.1-2.54-17.4-15.55-17.4-18.71 0-30.66 56.14-34.94 67.7-40.44-3.06-.79-40.12 0-40.12-22.78 0-26.17 63.94-34.07 73.98-34.07z" transform="translate(.34 -.13)" fill-rule="evenodd" fill="#ea0029"/><path class="cls-2" d="M45.71 129c25.39 0 50.15 25.29 75.22 25.29 6.27 0 43.88-15.18 50.15-15.18 24.76 0 30.11 23.11 63 15.22l5.92 6.36c-6.63 7.13-12.85 8.77-18.8 8.77-17.86 0-33.85-17.7-53.91-17.7-6.27 0-43.88 15.17-50.15 15.17-26.95 0-40.43-25.29-75.22-25.29-6.27 0-23.48 5-42.29 9.86l4-5.75C6.43 143.76 38.19 129 45.71 129z" transform="translate(.34 -.13)"/></svg>